<svg width="16" height="20" viewBox="0 0 16 20" fill="none" xmlns="http://www.w3.org/2000/svg">
<path d="M0.731445 16.4395C0.731445 18.1533 1.60156 19.0322 3.29785 19.0322H12.6934C14.3984 19.0322 15.2598 18.1533 15.2598 16.4395V2.88672C15.2598 1.17285 14.3984 0.302734 12.6934 0.302734H3.29785C1.60156 0.302734 0.731445 1.17285 0.731445 2.88672V16.4395ZM1.82129 16.4131V2.91309C1.82129 1.91992 2.33984 1.38379 3.35938 1.38379H12.6406C13.6514 1.38379 14.1787 1.91992 14.1787 2.91309V16.4131C14.1787 17.4062 13.6514 17.9424 12.6406 17.9424H3.35938C2.33984 17.9424 1.82129 17.4062 1.82129 16.4131ZM4.44043 4.54785H11.7793C12.0342 4.54785 12.2188 4.35449 12.2188 4.1084C12.2188 3.87109 12.0342 3.68652 11.7793 3.68652H4.44043C4.17676 3.68652 3.99219 3.87109 3.99219 4.1084C3.99219 4.35449 4.17676 4.54785 4.44043 4.54785ZM4.44043 7.03516H8.93164C9.17773 7.03516 9.37109 6.8418 9.37109 6.5957C9.37109 6.3584 9.17773 6.16504 8.93164 6.16504H4.44043C4.17676 6.16504 3.99219 6.3584 3.99219 6.5957C3.99219 6.8418 4.17676 7.03516 4.44043 7.03516ZM4.58105 16.2988H11.4189C12.1924 16.2988 12.5879 15.9121 12.5879 15.1387V9.8125C12.5879 9.03906 12.1924 8.65234 11.4189 8.65234H4.58105C3.8252 8.65234 3.41211 9.03906 3.41211 9.8125V15.1387C3.41211 15.9121 3.8252 16.2988 4.58105 16.2988Z" fill="#007AFF"/>
</svg>
