<svg width="78" height="78" viewBox="0 0 78 78" fill="none" xmlns="http://www.w3.org/2000/svg">
<path d="M39.1074 77.418C44.4243 77.418 49.4129 76.4143 54.0732 74.4069C58.7336 72.3995 62.846 69.6082 66.4105 66.0329C69.975 62.4576 72.769 58.3397 74.7927 53.6793C76.8163 49.019 77.8281 44.0412 77.8281 38.7461C77.8281 33.451 76.8163 28.4732 74.7927 23.8128C72.769 19.1524 69.9695 15.0346 66.3942 11.4593C62.8189 7.88398 58.701 5.09265 54.0407 3.08531C49.3803 1.07791 44.3917 0.0742188 39.0749 0.0742188C33.7906 0.0742188 28.8156 1.07791 24.1498 3.08531C19.484 5.09265 15.377 7.88398 11.8287 11.4593C8.28057 15.0346 5.49468 19.1524 3.47103 23.8128C1.44737 28.4732 0.435547 33.451 0.435547 38.7461C0.435547 44.0412 1.44737 49.019 3.47103 53.6793C5.49468 58.3397 8.28601 62.4576 11.845 66.0329C15.4041 69.6082 19.5165 72.3995 24.1823 74.4069C28.8481 76.4143 33.8231 77.418 39.1074 77.418ZM39.1074 71.7214C34.5501 71.7214 30.2804 70.8723 26.2982 69.1742C22.3159 67.476 18.8193 65.116 15.8082 62.094C12.7972 59.0722 10.4399 55.5647 8.73631 51.5716C7.03277 47.5786 6.18101 43.3034 6.18101 38.7461C6.18101 34.1888 7.02737 29.9137 8.72011 25.9206C10.4128 21.9275 12.7646 18.4201 15.7757 15.3981C18.7868 12.3762 22.2834 10.0161 26.2656 8.31802C30.2478 6.61995 34.5176 5.77091 39.0749 5.77091C43.6539 5.77091 47.9372 6.61995 51.9248 8.31802C55.9124 10.0161 59.4145 12.3762 62.431 15.3981C65.4475 18.4201 67.8129 21.9275 69.5273 25.9206C71.2418 29.9137 72.099 34.1888 72.099 38.7461C72.099 43.3034 71.2499 47.5786 69.5517 51.5716C67.8536 55.5647 65.499 59.0722 62.4879 62.094C59.4769 65.116 55.9748 67.476 51.9817 69.1742C47.9887 70.8723 43.6973 71.7214 39.1074 71.7214ZM27.6979 59.0098C28.1536 59.0098 28.5687 58.8633 28.943 58.5703C29.3173 58.2773 29.8843 57.7565 30.6439 57.0078L38.9284 48.7559C39.0477 48.6365 39.1725 48.6365 39.3027 48.7559L47.5384 57.0078C48.3088 57.7565 48.8866 58.2773 49.2718 58.5703C49.657 58.8633 50.0666 59.0098 50.5007 59.0098C51.1083 59.0098 51.5857 58.8091 51.9329 58.4076C52.2802 58.0061 52.4538 57.4527 52.4538 56.7474V24.3906C52.4538 22.5785 51.9872 21.1951 51.054 20.2402C50.1209 19.2853 48.7483 18.8079 46.9362 18.8079H31.2624C29.4286 18.8079 28.0505 19.2853 27.1282 20.2402C26.2059 21.1951 25.7448 22.5785 25.7448 24.3906V56.7474C25.7448 57.4527 25.9238 58.0061 26.2819 58.4076C26.64 58.8091 27.112 59.0098 27.6979 59.0098Z" fill="#007AFF"/>
</svg>
